<?xml version="1.0" standalone="no"?>
<!DOCTYPE svg PUBLIC "-//W3C//DTD SVG 20010904//EN"
 "http://www.w3.org/TR/2001/REC-SVG-20010904/DTD/svg10.dtd">
<svg version="1.0" xmlns="http://www.w3.org/2000/svg"
 width="340.000000pt" height="340.000000pt" viewBox="0 0 340.000000 340.000000"
 preserveAspectRatio="xMidYMid meet">
<metadata>
Created by potrace 1.14, written by Peter Selinger 2001-2017
</metadata>
<g transform="translate(0.000000,340.000000) scale(0.100000,-0.100000)"
fill="#000000" stroke="none">
<path d="M2363 3325 c-197 -44 -366 -207 -414 -399 l-11 -46 -42 23 c-97 56
-151 69 -331 77 -258 12 -331 37 -456 156 -107 102 -176 117 -274 59 -79 -46
-125 -117 -125 -192 0 -45 48 -150 114 -253 49 -75 176 -214 230 -251 l33 -23
-35 -55 c-139 -218 -160 -447 -58 -649 37 -74 82 -134 171 -230 l58 -63 -114
-106 c-63 -58 -199 -192 -302 -297 -212 -216 -186 -206 -250 -96 -26 44 -43
60 -86 83 -30 15 -66 27 -80 27 -165 0 -266 -187 -212 -393 55 -211 232 -426
433 -527 252 -126 476 -50 569 195 26 68 36 84 48 79 51 -21 174 -56 263 -75
85 -17 127 -20 243 -16 158 5 222 19 335 75 102 50 233 178 280 275 29 60 36
67 62 67 17 0 77 16 135 36 142 48 191 52 309 24 86 -21 102 -22 161 -11 189
35 318 171 346 364 14 96 -8 202 -64 317 -35 70 -59 102 -138 180 -106 105
-196 162 -340 216 -291 109 -648 96 -985 -36 l-99 -39 -122 71 c-123 71 -185
118 -185 142 0 25 74 89 137 119 56 26 80 30 191 37 201 12 270 49 358 189 2
1 18 -8 36 -22 87 -65 213 -107 325 -107 351 -1 614 335 527 674 -34 133 -134
270 -242 333 -119 70 -276 97 -399 68z m220 -205 c132 -41 226 -163 235 -303
5 -86 -6 -134 -50 -207 -107 -177 -363 -214 -519 -73 -56 51 -86 101 -105 176
-46 177 58 356 239 412 61 20 126 18 200 -5z m-1479 -234 c112 -67 225 -93
436 -100 105 -4 148 -9 192 -26 105 -39 186 -118 209 -203 8 -32 7 -48 -5 -82
-25 -63 -66 -81 -201 -88 -183 -9 -310 -62 -413 -171 -64 -67 -91 -125 -92
-189 0 -117 72 -187 363 -352 l137 -77 103 45 c222 98 391 133 611 124 196 -8
336 -50 478 -143 225 -149 313 -399 190 -537 -41 -45 -102 -77 -147 -77 -16 0
-59 9 -93 20 -35 11 -92 20 -125 20 -67 0 -192 -27 -278 -60 -64 -24 -65 -24
-72 -6 -4 9 34 40 111 92 148 100 262 190 262 208 0 28 -104 168 -154 208 -60
48 -187 110 -266 129 -126 31 -316 7 -459 -58 l-62 -28 90 -63 c111 -79 220
-191 253 -263 129 -274 -7 -565 -299 -645 -76 -20 -255 -20 -353 1 -101 21
-218 60 -319 106 -46 22 -85 39 -87 39 -9 0 -64 -122 -93 -202 -56 -161 -81
-190 -169 -196 -169 -12 -414 202 -476 417 -19 64 -20 90 -5 127 l10 28 39
-61 c43 -69 113 -126 176 -143 68 -19 102 6 374 279 236 236 391 378 514 471
l58 44 -28 24 c-206 172 -294 267 -347 372 -30 61 -32 71 -32 170 0 102 1 107
41 190 41 84 137 223 188 269 32 30 32 37 4 45 -47 11 -180 98 -244 158 -69
65 -130 145 -184 241 -27 48 -30 60 -19 73 11 13 20 8 68 -40 31 -30 82 -71
115 -90z m1286 -1487 c60 -27 121 -69 114 -80 -3 -5 -32 -27 -64 -49 l-59 -40
-25 57 c-15 31 -42 77 -60 103 l-34 47 41 -9 c23 -5 62 -18 87 -29z"/>
<path d="M2417 3016 c-59 -16 -114 -59 -141 -112 -16 -29 -21 -58 -21 -116 0
-69 3 -80 30 -119 47 -67 111 -101 187 -102 76 0 128 23 181 82 147 163 -20
424 -236 367z m83 -201 c15 -18 7 -43 -16 -52 -24 -9 -46 24 -33 48 12 23 32
24 49 4z"/>
<path d="M1496 1268 c-67 -68 -150 -165 -186 -215 -82 -117 -170 -266 -161
-275 10 -10 159 -37 246 -44 95 -7 226 9 303 38 182 68 226 253 102 433 -40
58 -158 185 -173 185 -5 0 -64 -55 -131 -122z m152 -190 c34 -57 35 -84 7
-106 -24 -19 -152 -48 -176 -40 -16 5 121 178 142 178 4 0 16 -15 27 -32z"/>
</g>
</svg>
